<svg width="100" height="70" xmlns="http://www.w3.org/2000/svg">

 <g>
  <title>background</title>
  <rect fill="none" id="canvas_background" height="72" width="102" y="-1" x="-1"/>
 </g>
 <g>
  <title>Layer 1</title>
  <g stroke="null" id="svg_1">
   <polygon stroke="null" id="svg_2" points="27.070817947387695,35.03706359863281 24.243492126464844,46.73492431640625 29.862350463867188,46.73492431640625 27.13472557067871,35.03706359863281 " fill="#F7981F"/>
   <path stroke="null" id="svg_3" d="m-0.507092,47.767691l0,1.702529c0,8.464076 9.149178,17.025293 20.427795,17.025293l60.158591,0c11.278617,0 20.427795,-8.563773 20.427795,-17.025293l0,-1.702529c0,-7.868446 -7.919573,-17.74874 -18.101516,-18.617899c-0.227515,-7.035076 -5.986972,-12.666716 -13.070619,-12.666716c-2.750633,0 -5.30187,0.853821 -7.408303,2.300715c-4.039033,-8.998353 -13.055281,-15.279305 -23.559324,-15.279305c-14.261878,0 -25.821694,11.55726 -25.821694,25.82425c0,0.255635 0.030676,0.498488 0.038345,0.749011c-7.651156,2.216356 -13.09107,11.173807 -13.09107,17.689944zm32.463092,7.80965l-1.462232,-5.815697l-6.945604,0l-1.531254,5.815697l-3.954674,0l6.746208,-23.730599l4.851953,0l6.24772,23.730599l-3.952117,0zm23.037829,0l-4.386697,0l-3.057395,-17.879114l-0.066465,0l-3.024162,17.879114l-4.386697,0l-4.588649,-23.730599l3.8243,0l3.121304,18.444067l0.069021,0l3.121304,-18.444067l3.990463,0l3.190325,18.543765l0.066465,0l3.090627,-18.543765l3.755279,0l-4.719023,23.730599zm13.888651,0.462699c-5.882162,0 -7.211464,-3.918885 -7.211464,-7.244697l0,-0.564953l3.788511,0l0,0.598186c0,2.891232 1.262837,4.353464 3.888209,4.353464c2.392744,0 3.586559,-1.697417 3.586559,-3.461298c0,-2.492442 -1.260281,-3.589116 -3.387164,-4.217978l-2.594696,-0.899835c-3.458742,-1.329302 -4.95165,-3.121304 -4.95165,-6.511024c0,-4.322788 2.924465,-6.715532 7.377627,-6.715532c6.081557,0 6.712976,3.788511 6.712976,6.245164l0,0.534277l-3.788511,0l0,-0.498488c0,-2.162672 -0.963744,-3.425509 -3.323255,-3.425509c-1.628395,0 -3.190325,0.899835 -3.190325,3.425509c0,2.027186 1.030209,3.054839 3.55844,4.018583l2.55635,0.933068c3.356488,1.193816 4.821277,3.026719 4.821277,6.280953c0.002556,5.059017 -3.057395,7.150112 -7.842883,7.150112z" fill="#F7981F"/>
   <path stroke="null" id="svg_4" d="m24.808445,31.846741l-6.746208,23.730599l3.954674,0l1.531254,-5.815697l6.945604,0l1.462232,5.815697l3.954674,0l-6.24772,-23.730599l-4.854509,0zm-0.564953,14.888184l2.824767,-11.697859l0.063909,0l2.725069,11.697859l-5.613745,0z" fill="#FFFFFF"/>
   <polygon stroke="null" id="svg_5" points="52.866943359375,50.3905029296875 52.79792022705078,50.3905029296875 49.60759353637695,31.84673309326172 45.61970138549805,31.84673309326172 42.498390197753906,50.288246154785156 42.42937088012695,50.288246154785156 39.30806350708008,31.84673309326172 35.4837646484375,31.84673309326172 40.07241439819336,55.57733917236328 44.459102630615234,55.57733917236328 47.480712890625,37.69822692871094 47.54974365234375,37.69822692871094 50.60713195800781,55.57733917236328 54.993831634521484,55.57733917236328 59.71029281616211,31.84673309326172 55.95756912231445,31.84673309326172 " fill="#FFFFFF"/>
   <path stroke="null" id="svg_6" d="m71.906642,42.616645l-2.55635,-0.933068c-2.525674,-0.963744 -3.55844,-1.991397 -3.55844,-4.018583c0,-2.525674 1.56193,-3.425509 3.190325,-3.425509c2.359511,0 3.323255,1.262837 3.323255,3.425509l0,0.498488l3.788511,0l0,-0.534277c0,-2.456653 -0.631419,-6.245164 -6.712976,-6.245164c-4.453162,0 -7.377627,2.392744 -7.377627,6.715532c0,3.38972 1.492909,5.181722 4.95165,6.511024l2.594696,0.899835c2.126883,0.628862 3.387164,1.728093 3.387164,4.217978c0,1.761325 -1.196372,3.461298 -3.586559,3.461298c-2.625372,0 -3.888209,-1.462232 -3.888209,-4.353464l0,-0.598186l-3.788511,0l0,0.564953c0,3.325812 1.331858,7.244697 7.211464,7.244697c4.785488,0 7.842883,-2.091095 7.842883,-7.144999c0,-3.261903 -1.464789,-5.094806 -4.821277,-6.286065z" fill="#FFFFFF"/>
  </g>
 </g>
</svg>