<svg width="650" height="500" xmlns="http://www.w3.org/2000/svg">
 <g>
  <title>background</title>
  <rect x="-1" y="-1" width="652" height="502" id="canvas_background" fill="none"/>
 </g>

 <g>
  <title>Layer 1</title>
  <g id="svg_22">
   <g id="svg_1">
    <polygon fill="#E44F26" points="42.015316009521484,426.1929931640625 14.9453125,122.572998046875 312.39532470703125,122.572998046875 285.2973327636719,426.1440124511719 163.48831176757812,459.91302490234375 " id="svg_2"/>
    <polygon fill="#F1662A" points="163.67030334472656,434.10198974609375 262.0973205566406,406.8139953613281 285.25531005859375,147.39801025390625 163.67030334472656,147.39801025390625 " id="svg_3"/>
    <polygon fill="#EBEBEB" points="163.67030334472656,260.0069885253906 114.39530944824219,260.0069885253906 110.99130249023438,221.875 163.67030334472656,221.875 163.67030334472656,184.63600158691406 163.5413055419922,184.63600158691406 70.29531860351562,184.63600158691406 71.18731689453125,194.62701416015625 80.33931732177734,297.2430114746094 163.67030334472656,297.2430114746094 " id="svg_4"/>
    <polygon fill="#EBEBEB" points="163.67030334472656,356.7149963378906 163.50730895996094,356.7610168457031 122.03530883789062,345.56201171875 119.38331604003906,315.864013671875 99.23231506347656,315.864013671875 82.0033187866211,315.864013671875 87.22030639648438,374.33099365234375 163.49830627441406,395.5069885253906 163.67030334472656,395.4590148925781 " id="svg_5"/>
    <path fill="#ffffff" d="m42.620313,40.06201l18.924,0l0,18.696l17.311,0l0,-18.696l18.925,0l0,56.618l-18.924,0l0,-18.958l-17.31,0l0,18.958l-18.926,0l0,-56.618l0,0z" id="svg_6"/>
    <path fill="#ffffff" d="m122.664313,58.83701l-16.66,0l0,-18.775l52.252,0l0,18.775l-16.667,0l0,37.843l-18.924,0l0,-37.843l-0.001,0z" id="svg_7"/>
    <path fill="#ffffff" d="m166.549313,40.06201l19.733,0l12.137,19.894l12.127,-19.894l19.739,0l0,56.618l-18.846,0l0,-28.063l-13.021,20.13l-0.325,0l-13.028,-20.13l0,28.063l-18.517,0l0,-56.618l0.001,0z" id="svg_8"/>
    <path fill="#ffffff" d="m239.703313,40.06201l18.929,0l0,37.903l26.612,0l0,18.714l-45.542,0l0,-56.617l0.001,0z" id="svg_9"/>
    <polygon fill="#FFFFFF" points="163.5413055419922,260.0069885253906 163.5413055419922,297.2430114746094 209.3953094482422,297.2430114746094 205.07330322265625,345.5369873046875 163.5413055419922,356.74700927734375 163.5413055419922,395.489013671875 239.8813018798828,374.33099365234375 240.44032287597656,368.041015625 249.19129943847656,270.0060119628906 250.0993194580078,260.0069885253906 240.06532287597656,260.0069885253906 " id="svg_10"/>
    <polygon fill="#FFFFFF" points="163.5413055419922,184.63600158691406 163.5413055419922,207.76400756835938 163.5413055419922,221.78298950195312 163.5413055419922,221.875 253.36830139160156,221.875 253.36830139160156,221.875 253.48829650878906,221.875 254.2353057861328,213.5050048828125 255.9313201904297,194.62701416015625 256.8222961425781,184.63600158691406 " id="svg_11"/>
   </g>
   <g id="svg_12">
    <path fill="#ffffff" d="m570.697604,55.60801l-24.688,0l25.674,27.859l0,13.261l-52.882,0l0,-15.526l25.669,0l-25.669,-27.86l0,-13.28l51.896,0l0,15.546l0,0zm-62.378,0l-24.688,0l25.673,27.859l0,13.261l-52.882,0l0,-15.526l25.672,0l-25.672,-27.86l0,-13.28l51.897,0l0,15.546zm-61.768,0.631l-26.64,0l0,24.313l26.64,0l0,16.176l-45.574,0l0,-56.666l45.574,0l0,16.177z" id="svg_13"/>
   </g>
   <polygon fill="#1572B6" points="364.67559814453125,426.2170104980469 337.6046142578125,122.59701538085938 635.0546875,122.59701538085938 607.9586181640625,426.1679992675781 486.14764404296875,459.93798828125 " id="svg_14"/>
   <polygon fill="#33A9DC" points="486.33160400390625,434.1260070800781 584.7586669921875,406.8380126953125 607.9156494140625,147.42300415039062 486.33160400390625,147.42300415039062 " id="svg_15"/>
   <g id="svg_16">
    <polygon fill="#FFFFFF" points="486.33062744140625,257.4230041503906 535.605712890625,257.4230041503906 539.008544921875,219.291015625 486.33062744140625,219.291015625 486.33062744140625,182.05201721191406 486.45965576171875,182.05201721191406 579.70556640625,182.05201721191406 578.8126220703125,192.0430145263672 569.66064453125,294.65899658203125 486.33062744140625,294.65899658203125 " id="svg_17"/>
    <polygon fill="#EBEBEB" points="486.55364990234375,354.1310119628906 486.390625,354.177001953125 444.91864013671875,342.9779968261719 442.2666015625,313.2799987792969 422.1156005859375,313.2799987792969 404.8876037597656,313.2799987792969 410.1036376953125,371.74700927734375 486.38165283203125,392.9230041503906 486.55364990234375,392.875 " id="svg_18"/>
    <polygon fill="#FFFFFF" points="532.440673828125,293.0830078125 527.95654296875,342.9530029296875 486.42462158203125,354.1629943847656 486.42462158203125,392.9049987792969 562.763671875,371.74700927734375 563.3236083984375,365.4570007324219 569.8015747070312,293.0830078125 " id="svg_19"/>
    <polygon fill="#EBEBEB" points="486.45965576171875,182.05201721191406 486.45965576171875,205.18002319335938 486.45965576171875,219.19900512695312 486.45965576171875,219.291015625 396.631591796875,219.291015625 396.631591796875,219.291015625 396.51263427734375,219.291015625 395.765625,210.9210205078125 394.0686340332031,192.0430145263672 393.1785888671875,182.05201721191406 " id="svg_20"/>
    <polygon fill="#EBEBEB" points="486.33062744140625,257.427001953125 486.33062744140625,280.5559997558594 486.33062744140625,294.572998046875 486.33062744140625,294.6650085449219 445.50262451171875,294.6650085449219 445.50262451171875,294.6650085449219 445.38360595703125,294.6650085449219 444.63763427734375,286.2959899902344 442.93963623046875,267.4179992675781 442.0495910644531,257.427001953125 " id="svg_21"/>
   </g>
  </g>
 </g>
</svg>